<mxfile host="app.diagrams.net" agent="Mozilla/5.0 (Macintosh; Intel Mac OS X 10_15_7) AppleWebKit/537.36 (KHTML, like Gecko) Chrome/127.0.0.0 Safari/537.36" version="24.7.7">
  <diagram id="FDbgXjDPW-2YGCrv3_xN" name="Page-1">
    <mxGraphModel dx="842" dy="1585" grid="1" gridSize="10" guides="1" tooltips="1" connect="1" arrows="1" fold="1" page="0" pageScale="1" pageWidth="850" pageHeight="1100" math="0" shadow="0">
      <root>
        <mxCell id="0" />
        <mxCell id="1" parent="0" />
        <mxCell id="-iQA_DNgZvjyMMIGpdRD-8" value="" style="edgeStyle=orthogonalEdgeStyle;rounded=0;orthogonalLoop=1;jettySize=auto;html=1;" edge="1" parent="1" source="-iQA_DNgZvjyMMIGpdRD-1" target="-iQA_DNgZvjyMMIGpdRD-3">
          <mxGeometry relative="1" as="geometry" />
        </mxCell>
        <mxCell id="-iQA_DNgZvjyMMIGpdRD-1" value="&lt;b&gt;CartViewContoller&lt;/b&gt;" style="rounded=1;whiteSpace=wrap;html=1;fillColor=#ffff88;strokeColor=#36393d;" vertex="1" parent="1">
          <mxGeometry x="520" y="-480" width="120" height="60" as="geometry" />
        </mxCell>
        <mxCell id="-iQA_DNgZvjyMMIGpdRD-6" value="" style="edgeStyle=orthogonalEdgeStyle;rounded=0;orthogonalLoop=1;jettySize=auto;html=1;" edge="1" parent="1" source="-iQA_DNgZvjyMMIGpdRD-3" target="-iQA_DNgZvjyMMIGpdRD-4">
          <mxGeometry relative="1" as="geometry" />
        </mxCell>
        <mxCell id="-iQA_DNgZvjyMMIGpdRD-3" value="&lt;b&gt;&lt;br&gt;performCheckout&lt;span class=&quot;s1&quot;&gt;()&lt;/span&gt;&lt;/b&gt;&lt;br&gt;&lt;div&gt;&lt;b&gt;&lt;span class=&quot;s1&quot;&gt;&lt;br&gt;&lt;/span&gt;&lt;/b&gt;&lt;/div&gt;" style="shape=step;perimeter=stepPerimeter;whiteSpace=wrap;html=1;fixedSize=1;" vertex="1" parent="1">
          <mxGeometry x="710" y="-490" width="170" height="80" as="geometry" />
        </mxCell>
        <mxCell id="-iQA_DNgZvjyMMIGpdRD-7" value="" style="edgeStyle=orthogonalEdgeStyle;rounded=0;orthogonalLoop=1;jettySize=auto;html=1;" edge="1" parent="1" source="-iQA_DNgZvjyMMIGpdRD-4" target="-iQA_DNgZvjyMMIGpdRD-5">
          <mxGeometry relative="1" as="geometry" />
        </mxCell>
        <mxCell id="-iQA_DNgZvjyMMIGpdRD-4" value="&lt;b&gt;CartViewModel.&lt;br&gt;checkout&lt;span class=&quot;s1&quot;&gt;()&lt;/span&gt;&lt;/b&gt;&lt;br&gt;&lt;div&gt;&lt;b&gt;&lt;span class=&quot;s1&quot;&gt;&lt;br&gt;&lt;/span&gt;&lt;/b&gt;&lt;/div&gt;" style="shape=step;perimeter=stepPerimeter;whiteSpace=wrap;html=1;fixedSize=1;" vertex="1" parent="1">
          <mxGeometry x="920" y="-490" width="170" height="80" as="geometry" />
        </mxCell>
        <mxCell id="-iQA_DNgZvjyMMIGpdRD-13" style="edgeStyle=orthogonalEdgeStyle;rounded=0;orthogonalLoop=1;jettySize=auto;html=1;entryX=0;entryY=0.5;entryDx=0;entryDy=0;exitX=1;exitY=0.5;exitDx=0;exitDy=0;" edge="1" parent="1" source="-iQA_DNgZvjyMMIGpdRD-5" target="-iQA_DNgZvjyMMIGpdRD-12">
          <mxGeometry relative="1" as="geometry">
            <Array as="points">
              <mxPoint x="1340" y="-450" />
              <mxPoint x="1340" y="-360" />
              <mxPoint x="470" y="-360" />
              <mxPoint x="470" y="-280" />
            </Array>
          </mxGeometry>
        </mxCell>
        <mxCell id="-iQA_DNgZvjyMMIGpdRD-5" value="&lt;b&gt;DefaultCartManager.&lt;br&gt;checkout&lt;span class=&quot;s1&quot;&gt;()&lt;/span&gt;&lt;/b&gt;&lt;br&gt;&lt;div&gt;&lt;b&gt;&lt;span class=&quot;s1&quot;&gt;&lt;br&gt;&lt;/span&gt;&lt;/b&gt;&lt;/div&gt;" style="shape=step;perimeter=stepPerimeter;whiteSpace=wrap;html=1;fixedSize=1;" vertex="1" parent="1">
          <mxGeometry x="1120" y="-490" width="170" height="80" as="geometry" />
        </mxCell>
        <mxCell id="-iQA_DNgZvjyMMIGpdRD-15" value="" style="edgeStyle=orthogonalEdgeStyle;rounded=0;orthogonalLoop=1;jettySize=auto;html=1;" edge="1" parent="1" source="-iQA_DNgZvjyMMIGpdRD-12" target="-iQA_DNgZvjyMMIGpdRD-14">
          <mxGeometry relative="1" as="geometry" />
        </mxCell>
        <mxCell id="-iQA_DNgZvjyMMIGpdRD-12" value="&lt;div&gt;&lt;b&gt;&lt;span class=&quot;s1&quot;&gt;DarkStoreKit.&lt;/span&gt;&lt;/b&gt;&lt;/div&gt;&lt;div&gt;&lt;b&gt;&lt;span class=&quot;s1&quot;&gt;checkoutHandler&lt;/span&gt;&lt;/b&gt;&lt;/div&gt;&lt;div&gt;&lt;span style=&quot;color: rgba(0, 0, 0, 0); font-family: monospace; font-size: 0px; text-align: start; text-wrap: nowrap;&quot;&gt;%3CmxGraphModel%3E%3Croot%3E%3CmxCell%20id%3D%220%22%2F%3E%3CmxCell%20id%3D%221%22%20parent%3D%220%22%2F%3E%3CmxCell%20id%3D%222%22%20value%3D%22%26lt%3Bdiv%26gt%3B%26lt%3Bb%26gt%3B%26lt%3Bspan%20class%3D%26quot%3Bs1%26quot%3B%26gt%3BDarkStoreKit.%26lt%3B%2Fspan%26gt%3B%26lt%3B%2Fb%26gt%3B%26lt%3B%2Fdiv%26gt%3B%26lt%3Bdiv%26gt%3B%26lt%3Bp%20style%3D%26quot%3Bmargin%3A%200px%3B%20font-variant-numeric%3A%20normal%3B%20font-variant-east-asian%3A%20normal%3B%20font-variant-alternates%3A%20normal%3B%20font-size-adjust%3A%20none%3B%20font-kerning%3A%20auto%3B%20font-optical-sizing%3A%20auto%3B%20font-feature-settings%3A%20normal%3B%20font-variation-settings%3A%20normal%3B%20font-variant-position%3A%20normal%3B%20font-stretch%3A%20normal%3B%20line-height%3A%20normal%3B%20font-family%3A%20Menlo%3B%20color%3A%20rgb(50%2C%20109%2C%20116)%3B%20text-align%3A%20start%3B%26quot%3B%20class%3D%26quot%3Bp1%26quot%3B%26gt%3BcheckoutHandler%26lt%3B%2Fp%26gt%3B%26lt%3B%2Fdiv%26gt%3B%22%20style%3D%22shape%3Dstep%3Bperimeter%3DstepPerimeter%3BwhiteSpace%3Dwrap%3Bhtml%3D1%3BfixedSize%3D1%3B%22%20vertex%3D%221%22%20parent%3D%221%22%3E%3CmxGeometry%20x%3D%22520%22%20y%3D%22-320%22%20width%3D%22170%22%20height%3D%2280%22%20as%3D%22geometry%22%2F%3E%3C%2FmxCell%3E%3C%2Froot%3E%3C%2FmxGraphModel%3E&lt;/span&gt;&lt;span style=&quot;color: rgba(0, 0, 0, 0); font-family: monospace; font-size: 0px; text-align: start; text-wrap: nowrap; background-color: initial;&quot;&gt;%3CmxGraphModel%3E%3Croot%3E%3CmxCell%20id%3D%220%22%2F%3E%3CmxCell%20id%3D%221%22%20parent%3D%220%22%2F%3E%3CmxCell%20id%3D%222%22%20value%3D%22%26lt%3Bdiv%26gt%3B%26lt%3Bb%26gt%3B%26lt%3Bspan%20class%3D%26quot%3Bs1%26quot%3B%26gt%3BDarkStoreKit.%26lt%3B%2Fspan%26gt%3B%26lt%3B%2Fb%26gt%3B%26lt%3B%2Fdiv%26gt%3B%26lt%3Bdiv%26gt%3B%26lt%3Bp%20style%3D%26quot%3Bmargin%3A%200px%3B%20font-variant-numeric%3A%20normal%3B%20font-variant-east-asian%3A%20normal%3B%20font-variant-alternates%3A%20normal%3B%20font-size-adjust%3A%20none%3B%20font-kerning%3A%20auto%3B%20font-optical-sizing%3A%20auto%3B%20font-feature-settings%3A%20normal%3B%20font-variation-settings%3A%20normal%3B%20font-variant-position%3A%20normal%3B%20font-stretch%3A%20normal%3B%20line-height%3A%20normal%3B%20font-family%3A%20Menlo%3B%20color%3A%20rgb(50%2C%20109%2C%20116)%3B%20text-align%3A%20start%3B%26quot%3B%20class%3D%26quot%3Bp1%26quot%3B%26gt%3BcheckoutHandler%26lt%3B%2Fp%26gt%3B%26lt%3B%2Fdiv%26gt%3B%22%20style%3D%22shape%3Dstep%3Bperimeter%3DstepPerimeter%3BwhiteSpace%3Dwrap%3Bhtml%3D1%3BfixedSize%3D1%3B%22%20vertex%3D%221%22%20parent%3D%221%22%3E%3CmxGeometry%20x%3D%22520%22%20y%3D%22-320%22%20width%3D%22170%22%20height%3D%2280%22%20as%3D%22geometry%22%2F%3E%3C%2FmxCell%3E%3C%2Froot%3E%3C%2FmxGraphModel%3E&lt;/span&gt;&lt;b&gt;&lt;span class=&quot;s1&quot;&gt;&lt;br&gt;&lt;/span&gt;&lt;/b&gt;&lt;/div&gt;" style="shape=step;perimeter=stepPerimeter;whiteSpace=wrap;html=1;fixedSize=1;" vertex="1" parent="1">
          <mxGeometry x="520" y="-320" width="170" height="80" as="geometry" />
        </mxCell>
        <mxCell id="-iQA_DNgZvjyMMIGpdRD-19" value="" style="edgeStyle=orthogonalEdgeStyle;rounded=0;orthogonalLoop=1;jettySize=auto;html=1;" edge="1" parent="1" source="-iQA_DNgZvjyMMIGpdRD-14" target="-iQA_DNgZvjyMMIGpdRD-18">
          <mxGeometry relative="1" as="geometry" />
        </mxCell>
        <mxCell id="-iQA_DNgZvjyMMIGpdRD-14" value="&lt;div&gt;&lt;b&gt;&lt;span class=&quot;s1&quot;&gt;DarkStoreKit.&lt;/span&gt;&lt;/b&gt;&lt;/div&gt;&lt;div&gt;&lt;p style=&quot;margin: 0px; font-variant-numeric: normal; font-variant-east-asian: normal; font-variant-alternates: normal; font-size-adjust: none; font-kerning: auto; font-optical-sizing: auto; font-feature-settings: normal; font-variation-settings: normal; font-variant-position: normal; font-stretch: normal; line-height: normal; font-family: Menlo; color: rgb(15, 104, 160); text-align: start;&quot; class=&quot;p1&quot;&gt;showCheckoutFor&lt;/p&gt;&lt;/div&gt;" style="shape=step;perimeter=stepPerimeter;whiteSpace=wrap;html=1;fixedSize=1;" vertex="1" parent="1">
          <mxGeometry x="720" y="-320" width="170" height="80" as="geometry" />
        </mxCell>
        <mxCell id="-iQA_DNgZvjyMMIGpdRD-21" value="" style="edgeStyle=orthogonalEdgeStyle;rounded=0;orthogonalLoop=1;jettySize=auto;html=1;" edge="1" parent="1" source="-iQA_DNgZvjyMMIGpdRD-18" target="-iQA_DNgZvjyMMIGpdRD-20">
          <mxGeometry relative="1" as="geometry" />
        </mxCell>
        <mxCell id="-iQA_DNgZvjyMMIGpdRD-18" value="Here, products &amp;amp; cart are configured in&amp;nbsp;&lt;b&gt;DarkStoreProductsConfig&lt;/b&gt;" style="rounded=0;whiteSpace=wrap;html=1;" vertex="1" parent="1">
          <mxGeometry x="920" y="-330" width="160" height="100" as="geometry" />
        </mxCell>
        <mxCell id="-iQA_DNgZvjyMMIGpdRD-20" value="&lt;div&gt;&lt;b&gt;&lt;span class=&quot;s1&quot;&gt;BasketHandler.&lt;/span&gt;&lt;/b&gt;&lt;/div&gt;&lt;div&gt;&lt;span style=&quot;background-color: initial;&quot;&gt;&lt;b&gt;addDarkStore&lt;/b&gt;&lt;/span&gt;&lt;b style=&quot;background-color: initial;&quot;&gt;ProductsData&lt;/b&gt;&lt;/div&gt;&lt;div&gt;&lt;p style=&quot;margin: 0px; font-variant-numeric: normal; font-variant-east-asian: normal; font-variant-alternates: normal; font-size-adjust: none; font-kerning: auto; font-optical-sizing: auto; font-feature-settings: normal; font-variation-settings: normal; font-variant-position: normal; font-stretch: normal; line-height: normal; font-family: Menlo; color: rgb(15, 104, 160); text-align: start;&quot; class=&quot;p1&quot;&gt;&lt;br&gt;&lt;/p&gt;&lt;p style=&quot;margin: 0px; font-variant-numeric: normal; font-variant-east-asian: normal; font-variant-alternates: normal; font-size-adjust: none; font-kerning: auto; font-optical-sizing: auto; font-feature-settings: normal; font-variation-settings: normal; font-variant-position: normal; font-stretch: normal; line-height: normal; font-family: Menlo; color: rgb(15, 104, 160); text-align: start;&quot; class=&quot;p1&quot;&gt;&lt;span style=&quot;background-color: initial; text-wrap: nowrap; color: rgba(0, 0, 0, 0); font-family: monospace; font-size: 0px;&quot;&gt;%3CmxGraphModel%3E%3Croot%3E%3CmxCell%20id%3D%220%22%2F%3E%3CmxCell%20id%3D%221%22%20parent%3D%220%22%2F%3E%3CmxCell%20id%3D%222%22%20value%3D%22%26lt%3Bdiv%26gt%3B%26lt%3Bb%26gt%3B%26lt%3Bspan%20class%3D%26quot%3Bs1%26quot%3B%26gt%3BDarkStoreKit.%26lt%3B%2Fspan%26gt%3B%26lt%3B%2Fb%26gt%3B%26lt%3B%2Fdiv%26gt%3B%26lt%3Bdiv%26gt%3B%26lt%3Bp%20style%3D%26quot%3Bmargin%3A%200px%3B%20font-variant-numeric%3A%20normal%3B%20font-variant-east-asian%3A%20normal%3B%20font-variant-alternates%3A%20normal%3B%20font-size-adjust%3A%20none%3B%20font-kerning%3A%20auto%3B%20font-optical-sizing%3A%20auto%3B%20font-feature-settings%3A%20normal%3B%20font-variation-settings%3A%20normal%3B%20font-variant-position%3A%20normal%3B%20font-stretch%3A%20normal%3B%20line-height%3A%20normal%3B%20font-family%3A%20Menlo%3B%20color%3A%20rgb(50%2C%20109%2C%20116)%3B%20text-align%3A%20start%3B%26quot%3B%20class%3D%26quot%3Bp1%26quot%3B%26gt%3BcheckoutHandler%26lt%3B%2Fp%26gt%3B%26lt%3B%2Fdiv%26gt%3B%22%20style%3D%22shape%3Dstep%3Bperimeter%3DstepPerimeter%3BwhiteSpace%3Dwrap%3Bhtml%3D1%3BfixedSize%3D1%3B%22%20vertex%3D%221%22%20parent%3D%221%22%3E%3CmxGeometry%20x%3D%22520%22%20y%3D%22-320%22%20width%3D%22170%22%20height%3D%2280%22%20as%3D%22geometry%22%2F%3E%3C%2FmxCell%3E%3C%2Froot%3E%3C%2FmxGraphModel%3E&lt;/span&gt;&lt;span style=&quot;background-color: initial; text-wrap: nowrap; color: rgba(0, 0, 0, 0); font-family: monospace; font-size: 0px;&quot;&gt;%3CmxGraphModel%3E%3Croot%3E%3CmxCell%20id%3D%220%22%2F%3E%3CmxCell%20id%3D%221%22%20parent%3D%220%22%2F%3E%3CmxCell%20id%3D%222%22%20value%3D%22%26lt%3Bdiv%26gt%3B%26lt%3Bb%26gt%3B%26lt%3Bspan%20class%3D%26quot%3Bs1%26quot%3B%26gt%3BDarkStoreKit.%26lt%3B%2Fspan%26gt%3B%26lt%3B%2Fb%26gt%3B%26lt%3B%2Fdiv%26gt%3B%26lt%3Bdiv%26gt%3B%26lt%3Bp%20style%3D%26quot%3Bmargin%3A%200px%3B%20font-variant-numeric%3A%20normal%3B%20font-variant-east-asian%3A%20normal%3B%20font-variant-alternates%3A%20normal%3B%20font-size-adjust%3A%20none%3B%20font-kerning%3A%20auto%3B%20font-optical-sizing%3A%20auto%3B%20font-feature-settings%3A%20normal%3B%20font-variation-settings%3A%20normal%3B%20font-variant-position%3A%20normal%3B%20font-stretch%3A%20normal%3B%20line-height%3A%20normal%3B%20font-family%3A%20Menlo%3B%20color%3A%20rgb(50%2C%20109%2C%20116)%3B%20text-align%3A%20start%3B%26quot%3B%20class%3D%26quot%3Bp1%26quot%3B%26gt%3BcheckoutHandler%26lt%3B%2Fp%26gt%3B%26lt%3B%2Fdiv%26gt%3B%22%20style%3D%22shape%3Dstep%3Bperimeter%3DstepPerimeter%3BwhiteSpace%3Dwrap%3Bhtml%3D1%3BfixedSize%3D1%3B%22%20vertex%3D%221%22%20parent%3D%221%22%3E%3CmxGeometry%20x%3D%22520%22%20y%3D%22-320%22%20width%3D%22170%22%20height%3D%2280%22%20as%3D%22geometry%22%2F%3E%3C%2FmxCell%3E%3C%2Froot%3E%3C%2FmxGraphModel%3E&lt;/span&gt;&lt;br&gt;&lt;/p&gt;&lt;/div&gt;" style="shape=step;perimeter=stepPerimeter;whiteSpace=wrap;html=1;fixedSize=1;" vertex="1" parent="1">
          <mxGeometry x="1130" y="-320" width="170" height="80" as="geometry" />
        </mxCell>
        <mxCell id="-iQA_DNgZvjyMMIGpdRD-25" value="" style="edgeStyle=orthogonalEdgeStyle;rounded=0;orthogonalLoop=1;jettySize=auto;html=1;" edge="1" parent="1" source="-iQA_DNgZvjyMMIGpdRD-23" target="-iQA_DNgZvjyMMIGpdRD-24">
          <mxGeometry relative="1" as="geometry" />
        </mxCell>
        <mxCell id="-iQA_DNgZvjyMMIGpdRD-23" value="&lt;b&gt;BasketController&lt;/b&gt;" style="rounded=1;whiteSpace=wrap;html=1;fillColor=#ffff88;strokeColor=#36393d;" vertex="1" parent="1">
          <mxGeometry x="520" y="-110" width="120" height="60" as="geometry" />
        </mxCell>
        <mxCell id="-iQA_DNgZvjyMMIGpdRD-24" value="&lt;b&gt;&lt;br&gt;performCheckout&lt;span class=&quot;s1&quot;&gt;()&lt;/span&gt;&lt;/b&gt;&lt;br&gt;&lt;div&gt;&lt;b&gt;&lt;span class=&quot;s1&quot;&gt;&lt;br&gt;&lt;/span&gt;&lt;/b&gt;&lt;/div&gt;" style="shape=step;perimeter=stepPerimeter;whiteSpace=wrap;html=1;fixedSize=1;" vertex="1" parent="1">
          <mxGeometry x="720" y="-120" width="170" height="80" as="geometry" />
        </mxCell>
      </root>
    </mxGraphModel>
  </diagram>
</mxfile>
